<?xml version="1.0" standalone="no"?><!DOCTYPE svg PUBLIC "-//W3C//DTD SVG 1.1//EN" "http://www.w3.org/Graphics/SVG/1.1/DTD/svg11.dtd"><svg t="1625884870258" class="icon" viewBox="0 0 1024 1024" version="1.1" xmlns="http://www.w3.org/2000/svg" p-id="2572" xmlns:xlink="http://www.w3.org/1999/xlink" width="128" height="128"><defs><style type="text/css"></style></defs><path d="M430.1 568.2l79 79c2.5 2.5 4.3 5.6 5.1 9.1l17.9 71.8c3.7 14.7 22 19.8 32.7 9.1l213.5-213.5c10.7-10.7 5.6-29-9-32.7l-71.8-18.1c-3.4-0.9-6.5-2.6-9-5.1L420.1 199.6c-2.5-2.5-4.3-5.6-5.1-9.1l-17.9-71.8c-3.7-14.7-22-19.8-32.7-9.1L151 323.1c-10.7 10.7-5.6 29 9.1 32.7l71.8 17.9c3.4 0.9 6.6 2.6 9.1 5.1l79 79c7.6 7.6 7.6 19.9 0 27.5L140.4 664.9c-22.8 22.8-22.8 59.9 0 82.7 22.8 22.8 59.9 22.8 82.7 0l179.4-179.4c7.6-7.6 19.9-7.6 27.6 0zM865.9 920H386c-19.1 0-34.8-15.6-34.8-34.8 0-19.1 15.6-34.8 34.8-34.8h479.9c19.1 0 34.8 15.6 34.8 34.8 0 19.2-15.6 34.8-34.8 34.8z" fill="#151515" p-id="2573"></path></svg>