<?xml version="1.0" standalone="no"?><!DOCTYPE svg PUBLIC "-//W3C//DTD SVG 1.1//EN" "http://www.w3.org/Graphics/SVG/1.1/DTD/svg11.dtd"><svg t="1620745984653" class="icon" viewBox="0 0 1029 1024" version="1.1" xmlns="http://www.w3.org/2000/svg" p-id="2252" xmlns:xlink="http://www.w3.org/1999/xlink" width="15.0732421875" height="15"><defs><style type="text/css"></style></defs><path d="M936.229 380.343h-7.315l65.829 80.457v365.714c0 29.257-29.257 51.2-58.514 51.2H819.2c-29.257 0-58.514-21.943-58.514-51.2v-80.457h-512v80.457c0 29.257-29.257 51.2-58.515 51.2h-102.4c-29.257 0-58.514-21.943-58.514-51.2V460.8l80.457-80.457H87.771c-21.942 21.943-51.2 14.628-73.142-7.314S0 321.829 21.943 299.886c21.943-14.629 51.2-14.629 65.828 0 29.258 0 51.2 7.314 73.143 21.943L256 219.429h541.257l80.457 95.085c21.943-7.314 43.886-14.628 65.829-14.628 21.943-21.943 51.2-14.629 73.143 7.314s14.628 51.2-7.315 73.143c-21.942 14.628-51.2 14.628-73.142 0zM109.714 526.629C80.457 563.2 87.771 614.4 124.343 636.343c36.571 21.943 87.771 14.628 117.028-21.943 21.943-36.571 14.629-87.771-21.942-109.714-14.629-7.315-29.258-14.629-43.886-14.629-29.257-7.314-58.514 7.314-65.829 36.572z m636.343-256H307.2L197.486 402.286h650.971l-102.4-131.657z m21.943 256c-21.943 36.571-14.629 87.771 21.943 109.714 36.571 21.943 87.771 14.628 109.714-21.943 21.943-36.571 14.629-87.771-21.943-109.714-14.628-7.315-29.257-14.629-43.885-14.629-29.258-7.314-58.515 7.314-65.829 36.572z" p-id="2253"></path></svg>