<?xml version="1.0" standalone="no"?><!DOCTYPE svg PUBLIC "-//W3C//DTD SVG 1.1//EN" "http://www.w3.org/Graphics/SVG/1.1/DTD/svg11.dtd"><svg t="1625887595826" class="icon" viewBox="0 0 1024 1024" version="1.1" xmlns="http://www.w3.org/2000/svg" p-id="4276" xmlns:xlink="http://www.w3.org/1999/xlink" width="128" height="128"><defs><style type="text/css"></style></defs><path d="M513.199827 65.667605c-246.537999 0-446.399933 199.861934-446.399933 446.399933 0 246.553349 199.861934 446.399933 446.399933 446.399933 246.553349 0 446.399933-199.846584 446.399933-446.399933C959.599759 265.529539 759.753175 65.667605 513.199827 65.667605zM513.199827 894.697075c-211.320916 0-382.629537-171.322947-382.629537-382.628514 0-94.183056 34.029024-180.417069 90.461291-247.080352l165.389818 165.389818c4.320399 39.651069 26.816762 73.840752 58.981323 94.068446-72.189136 27.369348-123.517151 97.156784-123.517151 178.936345l337.541643 0 100.846826 100.846826C693.608709 860.664981 607.375719 894.697075 513.199827 894.697075zM805.362956 759.14175 697.264982 651.0448c-16.556071-58.332547-60.10082-105.306394-116.275213-126.601396 35.888372-22.570042 59.752896-62.511729 59.752896-108.032482 0-70.436212-57.108672-127.542838-127.542838-127.542838-48.218188 0-90.184999 26.765597-111.865787 66.245773L266.120498 219.900316c66.663282-56.432267 152.897296-90.461291 247.079328-90.461291 211.304544 0 382.628514 171.308621 382.628514 382.629537C895.82834 606.244454 861.796246 692.476421 805.362956 759.14175z" p-id="4277"></path></svg>