<?xml version="1.0" standalone="no"?><!DOCTYPE svg PUBLIC "-//W3C//DTD SVG 1.1//EN" "http://www.w3.org/Graphics/SVG/1.1/DTD/svg11.dtd"><svg t="1620747505686" class="icon" viewBox="0 0 1024 1024" version="1.1" xmlns="http://www.w3.org/2000/svg" p-id="6833" xmlns:xlink="http://www.w3.org/1999/xlink" width="15" height="15"><defs><style type="text/css"></style></defs><path d="M768 958.176h-0.032c-217.696-67.392-190.048-208.096-190.048-326.048L768 577.28v380.896z m230.432-381.568L776.672 512h-17.44l-221.76 64.608c-13.6 3.936-22.944 17.408-22.944 31.712 0 134.72-34.688 319.68 244.704 415.68h17.44c279.36-96 244.736-281.376 244.736-415.68 0-14.304-9.376-27.776-22.976-31.712z" fill="#8DC240" p-id="6834"></path><path d="M64 199.84c0 2.592 10.592 5.44 16.832 7.84 79.936 30.08 213.44 48.096 367.136 48.32 116.928-0.032 222.72-10.816 301.376-28.928C782.112 219.456 832 210.304 832 199.712v181.824c0 2.528-12.736 11.712-32.48 19.488-63.104 26.624-198.144 47.264-351.552 46.976-112.832 0.032-215.072-10.656-286.976-27.296-35.84-8.224-64.224-18.176-81.024-27.424-8.384-4.544-13.696-8.928-15.584-11.168L64 381.632V199.84z m32.384-88.864C159.52 84.352 294.56 63.712 447.968 64c112.8-0.032 215.04 10.656 286.944 27.296 35.872 8.224 64.224 18.176 81.024 27.424 6.816 3.68 10.976 6.944 13.568 9.376-4.64 4.032-14.784 10.912-29.984 16.928-63.136 26.624-198.176 47.264-351.552 46.976-112.832 0.032-215.072-10.656-286.976-27.296-35.84-8.224-64.224-18.176-81.024-27.424a63.84 63.84 0 0 1-13.568-9.376c4.64-4.032 14.784-10.912 29.984-16.928zM80.832 463.68c79.936 30.08 213.44 48.096 367.136 48.32 116.928-0.032 222.688-10.816 301.344-28.928 39.424-9.184 71.968-19.904 97.28-33.6 0.832-0.48 1.504-1.024 2.304-1.472H896V128a31.68 31.68 0 0 0-2.752-12.8c-2.688-10.752-7.296-20.576-13.792-27.776-16.128-17.696-37.568-28.672-64.352-39.104C735.168 18.24 601.632 0.224 447.968 0c-116.928 0.032-222.72 10.816-301.376 28.928-39.424 9.184-71.968 19.904-97.28 33.6-12.64 6.976-23.68 14.656-32.864 24.896-6.464 7.2-11.04 17.024-13.728 27.776A31.744 31.744 0 0 0 0 128v768c0 16.352 7.456 30.56 16.48 40.576 16.128 17.696 37.536 28.672 64.352 39.104 79.904 30.08 213.44 48.096 367.136 48.32 45.568 0 89.504-1.664 130.784-4.736l-4.8-63.84a1689.664 1689.664 0 0 1-125.984 4.576c-112.832 0.032-215.072-10.656-286.976-27.296-35.84-8.224-64.224-18.176-81.024-27.424-8.384-4.544-13.696-8.928-15.584-11.168L64 893.632v-181.792c0 2.592 10.624 5.44 16.864 7.84C160.8 749.76 320 767.776 448 768v-64c-128 0.032-215.072-10.656-286.976-27.296-35.872-8.224-64.224-18.176-81.056-27.424-8.384-4.544-13.664-8.928-15.584-11.168L64 637.632v-181.792c0 2.592 10.592 5.44 16.832 7.84z" fill="#5F605C" p-id="6835"></path></svg>