<?xml version="1.0" standalone="no"?><!DOCTYPE svg PUBLIC "-//W3C//DTD SVG 1.1//EN" "http://www.w3.org/Graphics/SVG/1.1/DTD/svg11.dtd"><svg t="1625745820488" class="icon" viewBox="0 0 1024 1024" version="1.1" xmlns="http://www.w3.org/2000/svg" p-id="2545" width="16" height="16" xmlns:xlink="http://www.w3.org/1999/xlink"><defs><style type="text/css"></style></defs><path d="M877.625 797.037l-74.1-130.387v-262.8c0-100.688-75.712-209.625-186-249.562C612.125 100.925 576.425 62 529.7 62c-46.65 0-82.462 38.925-87.75 92.25-110.25 39.975-185.962 148.912-185.962 249.6v262.8l-77.7 136.763a29.137 29.137 0 0 0 25.275 43.5h184.95A144.45 144.45 0 0 0 529.737 962a144.375 144.375 0 0 0 141.188-115.088h186.263a29.063 29.063 0 0 0 20.437-49.875zM529.737 120.35c10.5 0 18.975 7.987 24.376 19.875-8.063-0.825-15.9-2.737-24.376-2.737-8.475 0-16.312 1.874-24.375 2.737 5.4-11.887 13.876-19.875 24.375-19.875z m0 783.375c-36.975 0-67.875-23.775-79.912-56.813H609.65c-12 33-42.863 56.775-79.913 56.775zM253.7 788.712l56.775-99.975a28.688 28.688 0 0 0 3.9-14.4V403.85c0-98.213 92.063-208.05 215.362-208.05 123.3 0 215.475 109.875 215.475 208.05v270.488c0 5.024 1.313 10.125 3.788 14.4l56.85 99.974H253.7z" p-id="2546"></path></svg>