<?xml version="1.0" standalone="no"?><!DOCTYPE svg PUBLIC "-//W3C//DTD SVG 1.1//EN" "http://www.w3.org/Graphics/SVG/1.1/DTD/svg11.dtd"><svg t="1624673133689" class="icon" viewBox="0 0 1024 1024" version="1.1" xmlns="http://www.w3.org/2000/svg" p-id="2610" xmlns:xlink="http://www.w3.org/1999/xlink" width="15" height="15"><defs><style type="text/css"></style></defs><path d="M512 179.2a332.8 332.8 0 1 0 332.8 332.8A332.8 332.8 0 0 0 512 179.2z m0 652.8A320 320 0 1 1 832 512 320.512 320.512 0 0 1 512 832z" p-id="2611"></path><path d="M598.016 336.384L512 508.16l-86.016-171.776h-81.152l109.568 198.656h-72.448v37.632h93.44l0.768 0.512v47.36h-94.208v37.632h94.208v85.504h71.68v-85.504h94.72v-37.632h-94.72v-47.36l0.768-0.512h93.952V535.04h-72.96l109.568-198.656h-81.152z" p-id="2612"></path><path d="M512 0a512 512 0 1 0 512 512A512 512 0 0 0 512 0z m0 921.6a409.6 409.6 0 1 1 409.6-409.6 409.6 409.6 0 0 1-409.6 409.6z" p-id="2613"></path></svg>